<mxfile host="app.diagrams.net" modified="2021-09-11T06:26:28.904Z" agent="5.0 (Windows NT 10.0; Win64; x64) AppleWebKit/537.36 (KHTML, like Gecko) Chrome/93.0.4577.63 Safari/537.36" etag="2uUNmq1nZMAVF43eEJKC" version="15.1.4" type="github">
  <diagram id="qnoH1Lu-ImQdYjpJb_q4" name="Page-1">
    <mxGraphModel dx="1026" dy="916" grid="1" gridSize="10" guides="1" tooltips="1" connect="1" arrows="1" fold="1" page="1" pageScale="1" pageWidth="827" pageHeight="1169" math="0" shadow="0">
      <root>
        <mxCell id="0" />
        <mxCell id="1" parent="0" />
        <mxCell id="JNNZ0Fwj7093i7aZ_AWD-1" value="" style="rounded=1;whiteSpace=wrap;html=1;fillColor=#f5f5f5;strokeColor=#666666;fontColor=#333333;" vertex="1" parent="1">
          <mxGeometry x="250" y="230" width="320" height="220" as="geometry" />
        </mxCell>
        <mxCell id="JNNZ0Fwj7093i7aZ_AWD-2" value="&lt;font style=&quot;font-size: 20px&quot;&gt;Container&lt;/font&gt;" style="rounded=1;whiteSpace=wrap;html=1;fillColor=#fff2cc;strokeColor=#d6b656;" vertex="1" parent="1">
          <mxGeometry x="270" y="280" width="120" height="60" as="geometry" />
        </mxCell>
        <mxCell id="JNNZ0Fwj7093i7aZ_AWD-3" value="&lt;font style=&quot;font-size: 20px&quot;&gt;Container&lt;/font&gt;" style="rounded=1;whiteSpace=wrap;html=1;fillColor=#fff2cc;strokeColor=#d6b656;" vertex="1" parent="1">
          <mxGeometry x="410" y="280" width="120" height="60" as="geometry" />
        </mxCell>
        <mxCell id="JNNZ0Fwj7093i7aZ_AWD-5" value="&lt;font style=&quot;font-size: 20px&quot;&gt;Container&lt;/font&gt;" style="rounded=1;whiteSpace=wrap;html=1;fillColor=#fff2cc;strokeColor=#d6b656;" vertex="1" parent="1">
          <mxGeometry x="280" y="290" width="120" height="60" as="geometry" />
        </mxCell>
        <mxCell id="JNNZ0Fwj7093i7aZ_AWD-8" value="&lt;font style=&quot;font-size: 20px&quot;&gt;Container&lt;/font&gt;" style="rounded=1;whiteSpace=wrap;html=1;fillColor=#fff2cc;strokeColor=#d6b656;" vertex="1" parent="1">
          <mxGeometry x="420" y="290" width="120" height="60" as="geometry" />
        </mxCell>
        <mxCell id="JNNZ0Fwj7093i7aZ_AWD-17" value="" style="group" vertex="1" connectable="0" parent="1">
          <mxGeometry x="310" y="380" width="203" height="70" as="geometry" />
        </mxCell>
        <mxCell id="JNNZ0Fwj7093i7aZ_AWD-9" value="" style="rounded=1;whiteSpace=wrap;html=1;fillColor=#fff2cc;strokeColor=#d6b656;" vertex="1" parent="JNNZ0Fwj7093i7aZ_AWD-17">
          <mxGeometry width="203" height="70" as="geometry" />
        </mxCell>
        <mxCell id="JNNZ0Fwj7093i7aZ_AWD-10" value="&lt;font style=&quot;font-size: 20px&quot;&gt;&lt;b&gt;net&lt;/b&gt;&lt;/font&gt;" style="rounded=0;whiteSpace=wrap;html=1;fillColor=#d5e8d4;strokeColor=#82b366;" vertex="1" parent="JNNZ0Fwj7093i7aZ_AWD-17">
          <mxGeometry x="20" y="40" width="67" height="30" as="geometry" />
        </mxCell>
        <mxCell id="JNNZ0Fwj7093i7aZ_AWD-12" value="&lt;span style=&quot;font-family: &amp;#34;helvetica&amp;#34; ; font-size: 20px&quot;&gt;Pause&lt;/span&gt;" style="text;html=1;strokeColor=none;fillColor=none;align=center;verticalAlign=middle;whiteSpace=wrap;rounded=0;" vertex="1" parent="JNNZ0Fwj7093i7aZ_AWD-17">
          <mxGeometry x="73.46666666666667" width="58" height="30" as="geometry" />
        </mxCell>
        <mxCell id="JNNZ0Fwj7093i7aZ_AWD-16" value="&lt;font style=&quot;font-size: 20px&quot;&gt;Volume&lt;/font&gt;" style="shape=cylinder3;whiteSpace=wrap;html=1;boundedLbl=1;backgroundOutline=1;size=9;fillColor=#e1d5e7;strokeColor=#9673a6;" vertex="1" parent="JNNZ0Fwj7093i7aZ_AWD-17">
          <mxGeometry x="108.26666666666667" y="30" width="77.33333333333333" height="40" as="geometry" />
        </mxCell>
        <mxCell id="JNNZ0Fwj7093i7aZ_AWD-18" value="&lt;font style=&quot;font-size: 24px&quot;&gt;&lt;b&gt;Pod&lt;/b&gt;&lt;/font&gt;" style="text;html=1;strokeColor=none;fillColor=none;align=center;verticalAlign=middle;whiteSpace=wrap;rounded=0;" vertex="1" parent="1">
          <mxGeometry x="390" y="240" width="40" height="20" as="geometry" />
        </mxCell>
      </root>
    </mxGraphModel>
  </diagram>
</mxfile>
